<svg xmlns="http://www.w3.org/2000/svg" width="40px" height="54px">
<path id="background" fill="#FFF" d="M0,0v54h40V0H0z M20,50c-3.866,0-7-3.134-7-7s3.134-7,7-7s7,3.134,7,7S23.866,50,20,50z"/>
<path id="branding" fill="#29303D" d="M20,33C9,33,3,43,3,43s6,10,17,10s17-10,17-10S31,33,20,33z M20,50c-3.866,0-7-3.133-7-7c0-3.865,3.134-7,7-7
	c3.867,0,7,3.135,7,7C27,46.867,23.867,50,20,50z M20,42.999l3.709-1.482C23.893,41.976,24,42.475,24,43c0,2.21-1.79,4-4,4
	c-2.209,0-4-1.79-4-4c0-2.209,1.791-4,4-4c0.525,0,1.023,0.107,1.483,0.291L20,42.999z M37.112,13.565
	c-0.86,0.006-1.39,0.483-1.598,1.077c-0.101-0.073-0.204-0.146-0.309-0.218c1.099-0.864,0.726-3.04-1.094-3.027
	c-0.982,0.007-1.533,0.629-1.666,1.337c-0.095-0.051-0.188-0.103-0.285-0.154c0.819-0.961,0.376-2.83-1.312-2.817
	c-1.014,0.007-1.568,0.669-1.677,1.405c-0.095-0.04-0.189-0.078-0.285-0.117c0.648-0.994,0.167-2.667-1.431-2.656
	c-1.093,0.007-1.651,0.776-1.695,1.576c-0.087-0.024-0.175-0.048-0.262-0.073c0.54-1.002,0.038-2.551-1.499-2.541
	c-1.236,0.01-1.789,0.989-1.687,1.891c-0.107-0.014-0.214-0.027-0.319-0.039c0.253-0.806,0.041-1.759-0.646-2.302
	c-0.195-0.76-0.324-1.731-0.372-2.203C21.699,4.779,22,5.094,23,5.443V2.06c-1,0.347-1.301,0.763-2.022,0.837
	C21.053,2.176,21.343,1,21.691,1h-3.385c0.35,0,0.64,1.176,0.714,1.897C18.3,2.823,18,2.407,17,2.06v3.383
	c1-0.349,1.3-0.664,2.021-0.738c-0.049,0.475-0.19,1.457-0.389,2.218c-0.663,0.545-0.868,1.488-0.624,2.285
	c-0.109,0.013-0.216,0.027-0.327,0.041c0.104-0.901-0.45-1.881-1.683-1.891c-1.536-0.01-2.04,1.539-1.5,2.542
	c-0.086,0.023-0.173,0.048-0.26,0.072c-0.043-0.801-0.602-1.569-1.696-1.577c-1.596-0.011-2.077,1.662-1.43,2.656
	c-0.094,0.039-0.19,0.078-0.283,0.117c-0.109-0.735-0.664-1.397-1.678-1.404c-1.687-0.013-2.13,1.855-1.312,2.816
	c-0.097,0.052-0.19,0.103-0.286,0.154c-0.131-0.708-0.683-1.329-1.666-1.336c-1.818-0.013-2.19,2.163-1.092,3.027
	c-0.105,0.072-0.209,0.145-0.31,0.216c-0.208-0.593-0.737-1.07-1.598-1.076c-2.163-0.017-2.28,3.061-0.312,3.351
	c0.119,0.592,0.63,1.133,1.105,1.034c-0.275,0.379,0.098,0.908,0.98,1.969c-0.579,0.712,0.314,1.807,0.945,1.542
	c0.333,0.994,0.531,2.256,1.129,2.29c-0.067,0.925,0.116,2.917,0.777,4.044c-1.426,0.697-0.215,3.085,0.78,2.653
	c1.797-0.778,7.194-1.193,11.706-1.193c4.511,0,9.908,0.415,11.706,1.193c0.996,0.432,2.205-1.956,0.779-2.653
	c0.664-1.128,0.846-3.119,0.78-4.044c0.597-0.033,0.796-1.295,1.126-2.29c0.631,0.265,1.527-0.83,0.946-1.542
	c0.883-1.061,1.256-1.589,0.979-1.969c0.476,0.101,0.987-0.442,1.107-1.033C39.394,16.627,39.276,13.548,37.112,13.565z
	 M12.683,25.918c-2.2,0.385-2.61-1.955-0.411-2.339C14.505,23.19,14.883,25.531,12.683,25.918z M13.132,19.467
	c2.065,0.457,1.61-3.079-0.597-1.867c0.296-0.845-0.143-1.674-1.223-1.745c-0.996,0.431-1.129,1.361-0.566,2.056
	c-2.485-0.396-1.723,3.086,0.067,1.958c0.299,0.331,0.166,1.691-1.425,2.289c-1.316,0.493-2.621-0.333-2.686-1.326
	c0.828-0.132,1.277-0.92,0.828-1.691c-0.464-0.796-1.459-0.465-1.691-0.033c-0.033-1.19,0.338-1.851-0.033-2.798
	c3.087-2.23,7.855-4.54,12.674-4.96c0.01,0.716,0.133,1.07,0.334,1.235c-0.666,0.651-0.551,1.849,0.348,2.309
	c-0.393,0.441-0.598,1.19-0.164,2.09c-2.443-1.011-1.954,3.003,0,1.726c0.162,1.227-1.324,2.298-2.789,2.564
	C14.062,21.659,12.963,19.879,13.132,19.467z M20,25.406c-1.346,0-2.439,0.304-2.439-1.127c0-1.432,1.094-1.125,2.439-1.125
	c1.345,0,2.438-0.307,2.438,1.125C22.438,25.71,21.345,25.406,20,25.406z M27.316,25.918c-2.201-0.387-1.822-2.728,0.409-2.339
	C29.927,23.963,29.517,26.303,27.316,25.918z M34.159,19.106c-0.229-0.432-1.225-0.763-1.689,0.033c-0.45,0.771,0,1.559,0.828,1.691
	c-0.065,0.993-1.369,1.819-2.687,1.326c-1.592-0.597-1.725-1.958-1.424-2.289c1.789,1.128,2.552-2.354,0.063-1.958
	c0.565-0.695,0.431-1.625-0.563-2.056c-1.081,0.071-1.521,0.9-1.224,1.745c-2.207-1.212-2.662,2.323-0.597,1.867
	c0.169,0.412-0.932,2.192-3.076,1.805c-1.467-0.266-2.952-1.337-2.791-2.564c1.955,1.277,2.443-2.737,0-1.726
	c0.435-0.899,0.228-1.647-0.164-2.088c0.908-0.461,1.033-1.667,0.354-2.316c0.198-0.167,0.319-0.521,0.33-1.229
	c4.817,0.42,9.587,2.73,12.673,4.959C33.82,17.255,34.192,17.916,34.159,19.106z"/>
</svg>
